<svg width="50" height="50" viewBox="0 0 50 50" fill="none" xmlns="http://www.w3.org/2000/svg">
<path d="M39.7461 0H10.2539C4.5999 0 0 4.5999 0 10.2539V39.7461C0 45.4001 4.5999 50 10.2539 50H39.7461C45.4001 50 50 45.4001 50 39.7461V10.2539C50 4.5999 45.4001 0 39.7461 0ZM15.3954 38.5269C14.9438 39.3092 14.1214 39.747 13.277 39.7471C12.863 39.7471 12.4438 39.6419 12.0604 39.4205C10.8945 38.7475 10.4937 37.2514 11.1667 36.0855L11.6469 35.2539H17.2851L15.3954 38.5269ZM10.791 33.3008C9.44482 33.3008 8.34961 32.2056 8.34961 30.8594C8.34961 29.5132 9.44482 28.418 10.791 28.418H15.5936L22.1809 17.0084L20.3956 13.9162C19.7226 12.7504 20.1233 11.2543 21.2892 10.5812H21.2893C22.4551 9.9081 23.9512 10.3091 24.6242 11.4748L25 12.1257L25.3758 11.4749C26.0491 10.309 27.5452 9.9082 28.7107 10.5813C29.2755 10.9073 29.6795 11.4338 29.8482 12.0637C30.0171 12.6936 29.9304 13.3516 29.6043 13.9163L21.2317 28.418H26.5129L29.332 33.3008H10.791ZM39.209 33.3008H37.2255L38.8332 36.0854C39.5063 37.2512 39.1055 38.7473 37.9397 39.4204C37.5635 39.6376 37.1459 39.7486 36.7229 39.7486C36.5107 39.7486 36.2975 39.7208 36.087 39.6644C35.457 39.4955 34.9306 39.0915 34.6045 38.5267L26.1275 23.8442L28.9466 18.9614L34.4064 28.418H39.209C40.5552 28.418 41.6504 29.5132 41.6504 30.8594C41.6504 32.2056 40.5552 33.3008 39.209 33.3008Z" fill="white"/>
</svg>
