<svg width="53" height="77" viewBox="0 0 53 77" fill="none" xmlns="http://www.w3.org/2000/svg">
<path d="M49.4264 29.4091C48.4603 28.533 46.9539 28.5903 45.9387 29.4091L38.3737 35.4597C37.4485 36.2048 36.2941 36.606 35.0988 36.606H25.4133C24.6928 36.606 24.1033 36.0165 24.1033 35.296C24.1033 34.5755 24.6928 33.986 25.4133 33.986H31.8239C33.1257 33.986 34.3374 33.0935 34.5502 31.808C34.8204 30.1705 33.5596 28.7458 31.9631 28.7458H18.8635C16.653 28.7458 14.5161 29.5073 12.7968 30.8992L8.98972 33.986H4.454C3.73352 33.986 3.14404 34.5755 3.14404 35.296V43.1562C3.14404 43.8767 3.73352 44.4662 4.454 44.4662H33.666C34.8532 44.4662 36.0076 44.065 36.9409 43.3199L49.32 33.4128C50.5644 32.4221 50.6627 30.5226 49.4264 29.4091Z" fill="white"/>
<path d="M4.47202 17.7523C5.43811 18.6284 6.94455 18.5711 7.95977 17.7523L15.5248 11.7016C16.4499 10.9566 17.6043 10.5554 18.7997 10.5554H28.4851C29.2056 10.5554 29.7951 11.1449 29.7951 11.8654C29.7951 12.5859 29.2056 13.1754 28.4851 13.1754H22.0745C20.7728 13.1754 19.5611 14.0679 19.3482 15.3533C19.078 16.9909 20.3389 18.4155 21.9354 18.4155H35.0349C37.2455 18.4155 39.3823 17.6541 41.1017 16.2622L44.9087 13.1754H49.4444C50.1649 13.1754 50.7544 12.5859 50.7544 11.8654V4.00522C50.7544 3.2847 50.1649 2.69519 49.4444 2.69519L20.2324 2.69519C19.0453 2.69519 17.8909 3.09639 16.9575 3.84146L4.57845 13.7486C3.33399 14.7393 3.23574 16.6388 4.47202 17.7523Z" fill="white"/>
<path d="M6.72384 60.2225L5.55964 63.5318H7.90961L6.75618 60.2225H6.72384ZM3.08032 66.5933L6.03394 58.8966H7.46764L10.432 66.5933H8.98757L8.26533 64.5559H5.19313L4.47089 66.5933H3.08032ZM10.8308 66.5933V61.0202H11.995V61.8394L12.0166 61.861C12.4118 61.1998 12.9903 60.8693 13.7521 60.8693C14.3701 60.8693 14.8516 61.031 15.1966 61.3543C15.5487 61.6777 15.7248 62.1484 15.7248 62.7665V66.5933H14.4959V63.0899C14.4959 62.2562 14.133 61.8394 13.4071 61.8394C13.0047 61.8394 12.6777 61.9796 12.4262 62.2598C12.1819 62.5401 12.0597 62.8887 12.0597 63.3055V66.5933H10.8308ZM18.3574 66.5717L16.2446 61.0202H17.592L19.0473 65.1811H19.0688L20.481 61.0202H21.7637L19.597 66.8951C19.3527 67.5562 19.1371 68.0018 18.9503 68.2318C18.6412 68.6127 18.1993 68.8031 17.6244 68.8031C17.3369 68.8031 17.053 68.7815 16.7728 68.7384V67.7036C17.0746 67.7539 17.2686 67.779 17.3549 67.779C17.6136 67.779 17.8112 67.7072 17.9477 67.5634C18.0412 67.4628 18.131 67.276 18.2172 67.0029L18.3574 66.5717ZM22.4596 66.5933V58.8966H23.8071V65.4291H27.7201V66.5933H22.4596ZM33.371 64.1247H29.2747C29.2747 64.5918 29.3969 64.9763 29.6412 65.2781C29.9071 65.6087 30.2844 65.774 30.7731 65.774C31.463 65.774 31.9157 65.465 32.1313 64.847H33.2955C33.1662 65.4434 32.8679 65.9105 32.4008 66.2483C31.9409 66.5789 31.3983 66.7442 30.7731 66.7442C29.9179 66.7442 29.2496 66.4747 28.7681 65.9357C28.2866 65.3967 28.0458 64.6889 28.0458 63.8121C28.0458 62.9929 28.2866 62.303 28.7681 61.7424C29.2783 61.1603 29.9359 60.8693 30.7408 60.8693C31.5241 60.8693 32.1673 61.1567 32.6703 61.7316C33.1518 62.2706 33.3926 62.9318 33.3926 63.7151C33.3926 63.8516 33.3854 63.9882 33.371 64.1247ZM29.2747 63.3162H32.1421C32.1206 62.9066 31.9804 62.5581 31.7217 62.2706C31.4702 61.9832 31.1432 61.8394 30.7408 61.8394C30.3239 61.8394 29.979 61.9796 29.7059 62.2598C29.4328 62.5401 29.2891 62.8922 29.2747 63.3162ZM37.5822 64.7176V63.8013C37.4241 63.9019 37.1942 63.9774 36.8923 64.0277C36.6192 64.0636 36.3462 64.0996 36.0731 64.1355C35.4047 64.2505 35.0706 64.5595 35.0706 65.0625C35.0706 65.3069 35.2071 65.4937 35.4802 65.6231C35.6886 65.7237 35.9293 65.774 36.2024 65.774C36.533 65.774 36.8312 65.695 37.0971 65.5369C37.4205 65.3428 37.5822 65.0697 37.5822 64.7176ZM38.8111 62.4862V65.3536C38.8111 65.6339 38.9081 65.774 39.1022 65.774C39.2171 65.774 39.3178 65.7668 39.404 65.7524V66.604C39.1381 66.6975 38.8794 66.7442 38.6279 66.7442C38.0817 66.7442 37.7655 66.5178 37.6792 66.0651C37.2193 66.5178 36.5761 66.7442 35.7497 66.7442C35.2107 66.7442 34.7687 66.6076 34.4238 66.3345C34.0357 66.0399 33.8417 65.6339 33.8417 65.1164C33.8417 64.4984 34.0716 64.0529 34.5316 63.7798C34.8119 63.6145 35.2969 63.4815 35.9868 63.3809C36.763 63.2659 37.151 63.2084 37.151 63.2084C37.4888 63.1078 37.6577 62.903 37.6577 62.594C37.6577 62.091 37.2732 61.8394 36.5043 61.8394C35.7353 61.8394 35.3257 62.1341 35.2754 62.7234H34.0465C34.1184 61.4873 34.9628 60.8693 36.5797 60.8693C37.1906 60.8693 37.6972 60.9914 38.0997 61.2358C38.574 61.5232 38.8111 61.94 38.8111 62.4862ZM39.6699 64.8038H40.8987C40.9562 65.4506 41.3766 65.774 42.16 65.774C43.008 65.774 43.4212 65.5297 43.3996 65.041C43.3852 64.696 43.0619 64.4481 42.4294 64.2972C41.373 64.0385 40.8017 63.8876 40.7155 63.8444C40.0974 63.5714 39.7884 63.1114 39.7884 62.4647C39.7884 61.9113 40.0507 61.4945 40.5753 61.2142C40.9922 60.9842 41.506 60.8693 42.1168 60.8693C42.7421 60.8693 43.2559 60.9986 43.6583 61.2573C44.1111 61.5592 44.3734 62.0011 44.4452 62.5832H43.1625C43.069 62.0874 42.6918 61.8394 42.0306 61.8394C41.3551 61.8394 41.0173 62.0299 41.0173 62.4108C41.0173 62.6695 41.2078 62.8671 41.5886 63.0036C41.6605 63.0324 42.0737 63.133 42.8283 63.3055C43.3888 63.4348 43.8021 63.5929 44.068 63.7798C44.4417 64.0529 44.6285 64.4373 44.6285 64.9332C44.6285 65.544 44.359 66.0112 43.82 66.3345C43.3673 66.6076 42.8067 66.7442 42.1384 66.7442C41.4054 66.7442 40.8233 66.5861 40.3921 66.2699C39.9178 65.9249 39.677 65.4362 39.6699 64.8038ZM50.4555 64.1247H46.3592C46.3592 64.5918 46.4814 64.9763 46.7257 65.2781C46.9916 65.6087 47.3689 65.774 47.8576 65.774C48.5475 65.774 49.0002 65.465 49.2158 64.847H50.38C50.2507 65.4434 49.9524 65.9105 49.4853 66.2483C49.0254 66.5789 48.4828 66.7442 47.8576 66.7442C47.0024 66.7442 46.3341 66.4747 45.8526 65.9357C45.3711 65.3967 45.1303 64.6889 45.1303 63.8121C45.1303 62.9929 45.3711 62.303 45.8526 61.7424C46.3628 61.1603 47.0204 60.8693 47.8253 60.8693C48.6086 60.8693 49.2518 61.1567 49.7548 61.7316C50.2363 62.2706 50.4771 62.9318 50.4771 63.7151C50.4771 63.8516 50.4699 63.9882 50.4555 64.1247ZM46.3592 63.3162H49.2266C49.2051 62.9066 49.0649 62.5581 48.8062 62.2706C48.5547 61.9832 48.2277 61.8394 47.8253 61.8394C47.4084 61.8394 47.0635 61.9796 46.7904 62.2598C46.5173 62.5401 46.3736 62.8922 46.3592 63.3162Z" fill="white"/>
</svg>
