<svg width="35" height="50" viewBox="0 0 35 50" fill="none" xmlns="http://www.w3.org/2000/svg">
<path d="M32.3661 19.2578C31.7335 18.6841 30.747 18.7216 30.0822 19.2578L25.1284 23.22C24.5226 23.7079 23.7667 23.9706 22.9839 23.9706H16.6416C16.1698 23.9706 15.7838 23.5845 15.7838 23.1127C15.7838 22.6409 16.1698 22.2549 16.6416 22.2549H20.8394C21.6919 22.2549 22.4853 21.6705 22.6247 20.8287C22.8017 19.7564 21.976 18.8235 20.9306 18.8235H12.3526C10.9051 18.8235 9.50582 19.3221 8.37997 20.2336L5.887 22.2549H2.91688C2.44509 22.2549 2.05908 22.6409 2.05908 23.1127V28.2598C2.05908 28.7316 2.44509 29.1176 2.91688 29.1176H22.0457C22.8231 29.1176 23.579 28.8549 24.1902 28.367L32.2964 21.8796C33.1113 21.2308 33.1756 19.987 32.3661 19.2578Z" fill="#3A3A3A"/>
<path d="M2.92835 11.6246C3.56098 12.1982 4.54744 12.1607 5.21223 11.6246L10.166 7.66239C10.7718 7.17449 11.5278 6.91178 12.3105 6.91178L18.6528 6.91178C19.1246 6.91178 19.5106 7.29781 19.5106 7.76962C19.5106 8.24144 19.1246 8.62747 18.6528 8.62747H14.455C13.6026 8.62747 12.8091 9.21187 12.6697 10.0536C12.4928 11.1259 13.3184 12.0588 14.3638 12.0588H22.9418C24.3893 12.0588 25.7886 11.5602 26.9145 10.6488L29.4074 8.62747H32.3776C32.8493 8.62747 33.2354 8.24144 33.2354 7.76962V2.62256C33.2354 2.15075 32.8493 1.76472 32.3776 1.76472L13.2487 1.76472C12.4713 1.76472 11.7154 2.02743 11.1042 2.51533L2.99805 9.00277C2.18314 9.65152 2.11881 10.8954 2.92835 11.6246Z" fill="#3A3A3A"/>
<path d="M5.72723 39.3042L5.04111 41.2546H6.42605L5.74628 39.3042H5.72723ZM3.57993 43.0588L5.32064 38.5228H6.16558L7.91264 43.0588H7.06134L6.6357 41.8581H4.82511L4.39946 43.0588H3.57993ZM8.14765 43.0588V39.7744H8.83376V40.2572L8.84647 40.2699C9.07941 39.8802 9.42035 39.6854 9.86929 39.6854C10.2335 39.6854 10.5173 39.7807 10.7206 39.9713C10.9281 40.1619 11.0319 40.4393 11.0319 40.8035V43.0588H10.3076V40.9941C10.3076 40.5028 10.0938 40.2572 9.666 40.2572C9.42882 40.2572 9.23612 40.3398 9.08788 40.505C8.94388 40.6701 8.87188 40.8755 8.87188 41.1212V43.0588H8.14765ZM12.5834 43.0461L11.3382 39.7744H12.1323L12.99 42.2266H13.0027L13.8349 39.7744H14.5909L13.314 43.2367C13.17 43.6264 13.0429 43.889 12.9328 44.0245C12.7507 44.249 12.4902 44.3612 12.1514 44.3612C11.982 44.3612 11.8147 44.3485 11.6495 44.3231V43.7132C11.8274 43.7428 11.9417 43.7577 11.9926 43.7577C12.145 43.7577 12.2615 43.7153 12.342 43.6306C12.397 43.5713 12.45 43.4612 12.5008 43.3002L12.5834 43.0461ZM15.001 43.0588V38.5228H15.7951V42.3727H18.1013V43.0588H15.001ZM21.4316 41.604H19.0175C19.0175 41.8793 19.0895 42.1059 19.2335 42.2838C19.3902 42.4786 19.6125 42.576 19.9005 42.576C20.3071 42.576 20.5739 42.3939 20.701 42.0297H21.3871C21.3109 42.3812 21.1351 42.6565 20.8598 42.8555C20.5888 43.0504 20.269 43.1478 19.9005 43.1478C19.3965 43.1478 19.0027 42.989 18.7189 42.6713C18.4351 42.3537 18.2932 41.9365 18.2932 41.4198C18.2932 40.937 18.4351 40.5304 18.7189 40.2C19.0196 39.857 19.4071 39.6854 19.8815 39.6854C20.3431 39.6854 20.7222 39.8548 21.0187 40.1937C21.3024 40.5113 21.4443 40.901 21.4443 41.3626C21.4443 41.4431 21.4401 41.5235 21.4316 41.604ZM19.0175 41.1275H20.7074C20.6947 40.8861 20.6121 40.6807 20.4596 40.5113C20.3114 40.3419 20.1187 40.2572 19.8815 40.2572C19.6358 40.2572 19.4325 40.3398 19.2716 40.505C19.1107 40.6701 19.0259 40.8777 19.0175 41.1275ZM23.9135 41.9534V41.4134C23.8203 41.4727 23.6848 41.5172 23.5069 41.5468C23.3459 41.568 23.185 41.5892 23.024 41.6104C22.6302 41.6781 22.4332 41.8602 22.4332 42.1567C22.4332 42.3007 22.5137 42.4108 22.6746 42.4871C22.7975 42.5464 22.9393 42.576 23.1003 42.576C23.2951 42.576 23.4709 42.5294 23.6276 42.4362C23.8182 42.3219 23.9135 42.161 23.9135 41.9534ZM24.6377 40.6384V42.3282C24.6377 42.4934 24.6949 42.576 24.8092 42.576C24.877 42.576 24.9363 42.5718 24.9871 42.5633V43.0652C24.8304 43.1202 24.6779 43.1478 24.5297 43.1478C24.2078 43.1478 24.0215 43.0144 23.9706 42.7475C23.6996 43.0144 23.3205 43.1478 22.8335 43.1478C22.5158 43.1478 22.2553 43.0673 22.052 42.9064C21.8233 42.7327 21.709 42.4934 21.709 42.1885C21.709 41.8242 21.8445 41.5617 22.1156 41.4007C22.2808 41.3033 22.5666 41.225 22.9732 41.1657C23.4306 41.0979 23.6593 41.064 23.6593 41.064C23.8584 41.0047 23.9579 40.884 23.9579 40.7019C23.9579 40.4054 23.7313 40.2572 23.2782 40.2572C22.825 40.2572 22.5836 40.4308 22.5539 40.7781H21.8297C21.872 40.0497 22.3697 39.6854 23.3226 39.6854C23.6826 39.6854 23.9812 39.7574 24.2184 39.9014C24.4979 40.0708 24.6377 40.3165 24.6377 40.6384ZM25.1438 42.0042H25.868C25.9019 42.3854 26.1497 42.576 26.6113 42.576C27.1111 42.576 27.3546 42.432 27.3419 42.144C27.3334 41.9407 27.1429 41.7946 26.7701 41.7057C26.1476 41.5532 25.8109 41.4642 25.76 41.4388C25.3958 41.2779 25.2137 41.0068 25.2137 40.6257C25.2137 40.2995 25.3683 40.0539 25.6774 39.8887C25.9231 39.7532 26.2259 39.6854 26.5859 39.6854C26.9544 39.6854 27.2572 39.7617 27.4944 39.9141C27.7612 40.092 27.9158 40.3525 27.9581 40.6955H27.2021C27.1471 40.4033 26.9247 40.2572 26.5351 40.2572C26.137 40.2572 25.9379 40.3694 25.9379 40.5939C25.9379 40.7464 26.0501 40.8628 26.2746 40.9433C26.317 40.9602 26.5605 41.0195 27.0052 41.1212C27.3356 41.1974 27.5791 41.2906 27.7358 41.4007C27.956 41.5617 28.0661 41.7882 28.0661 42.0805C28.0661 42.4405 27.9073 42.7158 27.5897 42.9064C27.3229 43.0673 26.9925 43.1478 26.5986 43.1478C26.1666 43.1478 25.8236 43.0546 25.5694 42.8682C25.2899 42.665 25.148 42.377 25.1438 42.0042ZM31.5003 41.604H29.0861C29.0861 41.8793 29.1581 42.1059 29.3021 42.2838C29.4589 42.4786 29.6812 42.576 29.9692 42.576C30.3758 42.576 30.6426 42.3939 30.7697 42.0297H31.4558C31.3796 42.3812 31.2038 42.6565 30.9285 42.8555C30.6574 43.0504 30.3377 43.1478 29.9692 43.1478C29.4652 43.1478 29.0713 42.989 28.7876 42.6713C28.5038 42.3537 28.3619 41.9365 28.3619 41.4198C28.3619 40.937 28.5038 40.5304 28.7876 40.2C29.0883 39.857 29.4758 39.6854 29.9501 39.6854C30.4118 39.6854 30.7909 39.8548 31.0873 40.1937C31.3711 40.5113 31.513 40.901 31.513 41.3626C31.513 41.4431 31.5087 41.5235 31.5003 41.604ZM29.0861 41.1275H30.776C30.7633 40.8861 30.6807 40.6807 30.5283 40.5113C30.38 40.3419 30.1873 40.2572 29.9501 40.2572C29.7045 40.2572 29.5012 40.3398 29.3403 40.505C29.1793 40.6701 29.0946 40.8777 29.0861 41.1275Z" fill="#3A3A3A"/>
</svg>
