<svg width="50" height="51" viewBox="0 0 50 51" fill="none" xmlns="http://www.w3.org/2000/svg">
<g clip-path="url(#clip0)">
<path d="M3.71201 1.84485C3.11881 2.62877 2.78857 3.59311 2.78857 4.62509V45.4718C2.78857 46.4304 3.07447 47.3309 3.59085 48.0831L25.816 24.9009L3.71201 1.84485Z" fill="white"/>
<path d="M27.8507 22.7782L35.0608 15.2577L9.71646 0.625336C8.61644 -0.00990772 7.35437 -0.160501 6.17676 0.170498L27.8507 22.7782Z" fill="white"/>
<path d="M27.851 27.0234L5.95801 49.8593C6.43004 50.018 6.91852 50.0978 7.40737 50.0978C8.20047 50.0978 8.99395 49.8891 9.71672 49.4718L35.2434 34.7339L27.851 27.0234Z" fill="white"/>
<path d="M45.0908 21.0487L37.6811 16.7705L29.8862 24.9006L37.8631 33.2215L45.0908 29.0484C46.5371 28.2137 47.4005 26.7181 47.4005 25.0485C47.4005 23.3786 46.5371 21.8834 45.0908 21.0487Z" fill="white"/>
</g>
<defs>
<clipPath id="clip0">
<rect width="50" height="50.0978" fill="white"/>
</clipPath>
</defs>
</svg>
